/* XPM */
static const char *_8x48[] = {
/* columns rows colors chars-per-pixel */
"48 34 86 1 ",
"  c #010000",
". c #0B0201",
"X c #050808",
"o c #0B0C0C",
"O c #130200",
"+ c #1C0301",
"@ c #190E0D",
"# c #0E0F10",
"$ c #131414",
"% c #161718",
"& c #151818",
"* c #1B1C1C",
"= c #240300",
"- c #2B0400",
"; c #330400",
": c #3A0600",
"> c #390904",
", c #380F0A",
"< c #231C1B",
"1 c #1E2222",
"2 c #222222",
"3 c #272728",
"4 c #26292A",
"5 c #2A2B2B",
"6 c #2C2F30",
"7 c #323333",
"8 c #363D3E",
"9 c #3B3C3C",
"0 c #440700",
"q c #490700",
"w c #4C0800",
"e c #520600",
"r c #580700",
"t c #530800",
"y c #5C0900",
"u c #640A00",
"i c #6C0B00",
"p c #730B00",
"a c #7C0C00",
"s c #601007",
"d c #424343",
"f c #4B4C4C",
"g c #545555",
"h c #5B5B5B",
"j c #646464",
"k c #666868",
"l c #6C6C6C",
"z c #767676",
"x c #767979",
"c c #7C7C7C",
"v c #830D00",
"b c #8B0E00",
"n c #940F00",
"m c #9B0F00",
"M c #951001",
"N c #9B1000",
"B c #A41100",
"V c #AC1200",
"C c #B31200",
"Z c #BB1300",
"A c #C41400",
"S c #CD1500",
"D c #D31600",
"F c #DC1600",
"G c #E21700",
"H c #E61800",
"J c #EB1800",
"K c #F41900",
"L c #FF1A00",
"P c #828282",
"I c #8B8B8B",
"U c #939494",
"Y c #9E9E9E",
"T c #A4A4A4",
"R c #ACACAC",
"E c #B4B4B4",
"W c #BCBCBC",
"Q c #C3C3C3",
"! c #CCCCCC",
"~ c #D3D3D3",
"^ c #DBDBDB",
"/ c #E4E4E4",
"( c #EBEBEB",
") c #F4F4F4",
"_ c #FCFCFC",
"` c None",
/* pixels */
"`````````````````(QRTW/`````````````````````````",
"```````````````Wx9*oX$8xR^``!QQ`````````````````",
"`````````````Qj* .-qt:O #7gd1&*fW```````````````",
"```````````(I2 .tCHLLKDB: .-ypa=7!``````````````",
"``````````!gX =BLLGZNCKGivCVi::- l``````````````",
"`````````T6  :SLLC;.0ZLDVbq.-;   f``````````````",
"````````I%  =DLLD: =FLJv:O iM,   7!`````````````",
"``````^lX   :vZLZCqqLLSnDD:Bs8$@- 7T````````````",
"`````~f      rJLLLCpKAv+yJVbV><2wuO#gT/`````````",
"````Q9 %5X  +SLLLLLJJp +VFJGCipuuZAyOo9PW```````",
"```~jhYRd   wLLLLLLVt;+ONFunJVbVJLLLSv;.%gT`````",
"```/^_W7    aLLLLDDDFGGDDLZ-uGLLLLLLLLJZi+Xh!```",
"`````I%   .-vLLLKaGLLLLLLJCC.:ALLLLLLLLLLF0 l```",
"````c#<9X wVbLLLAtKLLLLLLDaG= +vJLLLLLLLLD= f```",
"```I9IR9  aLGLLLC-GLLLLLLA;a.   0ALLLLLLLa..d```",
"``(E(Q5oX tLLLLLZ vLLLLLLDO      OaGLLLLLAye6^``",
"````T9jP$ =DLLLLN OCLLLLLKw  O   1#-bDKLLLFp&Q``",
"```~IW!6   aLLLLv:ywDLLLLLA= y:  %#2#+wvBZFr*!``",
"```)`^d 2# +ALLLSwSGDMJLLLLDywCb:  o2*&%#.+.j```",
"`````l2II#  0JLLLAbJLirGLLLLLJJKSCi:O##21*2$W```",
"````~I~~2    NLLLLGGLG:-MFKGABp0-bFHSMw    f)```",
"````)`^hh2   VLLLLLLLLA+ +:=.  oX +rBAp.*jlE````",
"``````ERP$$ 0KLLLLLLLLLAq    7IRTPg4$.#fE```````",
"``````)/cz* iJFKLLLLLLLV-  2I^`````^EYR`````````",
"```````_)zX O-pHLLLLLLC=- 5E````````````````````",
"```````_E2 .0MGLLLLLKJBApXI`````````````````````",
"````````Q7 tpMGLLLLLHpBH05~`````````````````````",
"`````````Q7 uJLLLLLLLV+:.g``````````````````````",
"``````````QfOvHLLLLLFKBO P``````````````````````",
"```````````^z$;MHLLLAiC=XR``````````````````````",
"`````````````Eg$=iVDHu. 7~``````````````````````",
"```````````````El7$+--  9(``````````````````````",
"`````````````````^WUxkjjP(``````````````````````",
"````````````````````````````````````````````````"
};
